<?xml version="1.0" standalone="no"?>
<!DOCTYPE svg PUBLIC "-//W3C//DTD SVG 20010904//EN"
 "http://www.w3.org/TR/2001/REC-SVG-20010904/DTD/svg10.dtd">
<svg version="1.0" xmlns="http://www.w3.org/2000/svg"
 width="16.000000pt" height="16.000000pt" viewBox="0 0 16.000000 16.000000"
 preserveAspectRatio="xMidYMid meet">

<g transform="translate(0.000000,16.000000) scale(0.100000,-0.100000)"
fill="#000000" stroke="none">
<path d="M2 138 c6 -18 28 -21 28 -4 0 9 -7 16 -16 16 -9 0 -14 -5 -12 -12z"/>
<path d="M0 60 c0 -38 4 -50 15 -50 11 0 15 12 15 50 0 38 -4 50 -15 50 -11 0
-15 -12 -15 -50z"/>
<path d="M55 101 c-3 -2 -5 -24 -5 -48 0 -32 4 -43 15 -43 9 0 15 9 15 23 0
30 24 62 38 53 7 -4 12 -23 12 -42 0 -24 5 -34 15 -34 19 0 21 73 3 88 -13 10
-84 13 -93 3z"/>
</g>
</svg>
